<svg width="32" height="32" viewBox="0 0 32 32" fill="none" xmlns="http://www.w3.org/2000/svg">
<path d="M16.0364 0H15.9636C7.14713 0 0 7.14924 0 15.9683V16.0412C0 24.8602 7.14713 32.0094 15.9636 32.0094H16.0364C24.8529 32.0094 32 24.8602 32 16.0412V15.9683C32 7.14924 24.8529 0 16.0364 0Z" fill="#383D38"/>
<path d="M14.7627 16.6079C14.4847 16.2591 14.1663 15.9922 13.8097 15.8117C14.1248 15.6199 14.3961 15.3844 14.6203 15.1041C14.9981 14.6308 15.1898 14.0376 15.1898 13.34C15.1898 12.758 15.0362 12.2231 14.7324 11.7509C14.4297 11.2788 13.979 10.8998 13.3927 10.6239C12.8187 10.3536 12.127 10.2168 11.3388 10.2168H6.85547V21.798H11.5451C12.3131 21.798 12.9992 21.6578 13.5833 21.3819C14.1786 21.1016 14.6427 20.709 14.9611 20.2167C15.2807 19.7222 15.4432 19.1603 15.4432 18.5469C15.4432 17.8281 15.2145 17.1765 14.7627 16.609V16.6079ZM12.3814 14.4974C12.1045 14.7216 11.6998 14.836 11.1807 14.836H9.2412V12.2702H11.1807C11.6976 12.2702 12.1 12.3879 12.377 12.6212C12.6427 12.8444 12.7716 13.1527 12.7716 13.561C12.7716 13.9692 12.6438 14.2854 12.3814 14.4974ZM9.2412 16.8905H11.3231C11.868 16.8905 12.2873 17.0229 12.6045 17.2954C12.9084 17.5567 13.0564 17.9032 13.0564 18.3563C13.0564 18.8093 12.9196 19.1289 12.6371 19.3678C12.3444 19.6156 11.924 19.7412 11.3859 19.7412H9.2412V16.8905Z" fill="white"/>
<path d="M24.6005 14.6711C24.2395 14.0184 23.7283 13.5037 23.0803 13.1425C22.4334 12.7814 21.6856 12.5986 20.8604 12.5986C20.0353 12.5986 19.2315 12.787 18.5689 13.1582C17.9052 13.5306 17.3827 14.0655 17.0173 14.7507C16.6518 15.4348 16.4668 16.2377 16.4668 17.1371C16.4668 18.0365 16.6574 18.8406 17.0341 19.5236C17.4108 20.2076 17.9377 20.7459 18.6014 21.1227C19.264 21.4995 20.0241 21.6902 20.8616 21.6902C21.8896 21.6902 22.763 21.4289 23.4581 20.9142C24.1532 20.3994 24.6397 19.7288 24.9054 18.9225L24.9245 18.8653H22.8908L22.8785 18.89C22.4872 19.6828 21.8089 20.0843 20.8604 20.0843C20.2001 20.0843 19.6351 19.8746 19.181 19.463C18.7382 19.0604 18.4837 18.5221 18.4243 17.8616H25.0747L25.0803 17.8246C25.1229 17.5588 25.1442 17.2582 25.1442 16.9319C25.1442 16.0841 24.9615 15.3237 24.6005 14.6711ZM19.2124 14.7877C19.6452 14.4008 20.1732 14.2057 20.7808 14.2057C21.4524 14.2057 22.023 14.4042 22.4771 14.7967C22.9188 15.178 23.1531 15.6905 23.1733 16.3185H18.4433C18.533 15.6804 18.792 15.1656 19.2135 14.7888L19.2124 14.7877Z" fill="white"/>
<path d="M23.0213 10.4834H18.5918V11.5331H23.0213V10.4834Z" fill="white"/>
</svg>
