<svg width="32" height="32" viewBox="0 0 32 32" fill="none" xmlns="http://www.w3.org/2000/svg">
<path d="M16.0364 0H15.9636C7.14713 0 0 7.14924 0 15.9683V16.0412C0 24.8602 7.14713 32.0094 15.9636 32.0094H16.0364C24.8529 32.0094 32 24.8602 32 16.0412V15.9683C32 7.14924 24.8529 0 16.0364 0Z" fill="#383D38"/>
<path d="M20.9525 6.51172H11.0508C8.31526 6.51172 6.08984 8.73779 6.08984 11.4741V20.5354C6.08984 23.2717 8.31526 25.4978 11.0508 25.4978H20.9525C23.688 25.4978 25.9134 23.2717 25.9134 20.5354V11.4741C25.9134 8.73779 23.688 6.51172 20.9525 6.51172ZM7.83991 11.4741C7.83991 9.70335 9.28054 8.26229 11.0508 8.26229H20.9525C22.7227 8.26229 24.1633 9.70335 24.1633 11.4741V20.5354C24.1633 22.3062 22.7227 23.7472 20.9525 23.7472H11.0508C9.28054 23.7472 7.83991 22.3062 7.83991 20.5354V11.4741Z" fill="white"/>
<path d="M16.0012 20.6194C18.545 20.6194 20.6157 18.5492 20.6157 16.0036C20.6157 13.4579 18.5462 11.3877 16.0012 11.3877C13.4563 11.3877 11.3867 13.4579 11.3867 16.0036C11.3867 18.5492 13.4563 20.6194 16.0012 20.6194ZM16.0012 13.1394C17.5809 13.1394 18.8657 14.4246 18.8657 16.0047C18.8657 17.5848 17.5809 18.87 16.0012 18.87C14.4216 18.87 13.1368 17.5848 13.1368 16.0047C13.1368 14.4246 14.4216 13.1394 16.0012 13.1394Z" fill="white"/>
<path d="M21.0421 12.1339C21.7271 12.1339 22.2855 11.5765 22.2855 10.8902C22.2855 10.2038 21.7283 9.64648 21.0421 9.64648C20.356 9.64648 19.7988 10.2038 19.7988 10.8902C19.7988 11.5765 20.356 12.1339 21.0421 12.1339Z" fill="white"/>
</svg>
