<svg width="32" height="32" viewBox="0 0 32 32" fill="none" xmlns="http://www.w3.org/2000/svg">
<path d="M16.0364 0H15.9636C7.14714 0 0 7.14923 0 15.9683V16.0412C0 24.8602 7.14714 32.0094 15.9636 32.0094H16.0364C24.8529 32.0094 32 24.8602 32 16.0412V15.9683C32 7.14923 24.8529 0 16.0364 0Z" fill="#383D38"/>
<path d="M7.63117 10.6396C7.20964 10.2482 7 9.76376 7 9.18734C7 8.61092 7.21076 8.10514 7.63117 7.71264C8.05271 7.32125 8.59534 7.125 9.26016 7.125C9.92498 7.125 10.4463 7.32125 10.8667 7.71264C11.2883 8.10402 11.4979 8.59634 11.4979 9.18734C11.4979 9.77834 11.2871 10.2482 10.8667 10.6396C10.4452 11.031 9.9104 11.2272 9.26016 11.2272C8.60991 11.2272 8.05271 11.031 7.63117 10.6396ZM11.1436 12.8847V24.8842H7.35314V12.8847H11.1436Z" fill="#FEFFFC"/>
<path d="M23.7618 14.0703C24.5881 14.9675 25.0007 16.1989 25.0007 17.7666V24.6725H21.4008V18.2533C21.4008 17.4627 21.1956 16.8482 20.7864 16.4108C20.3772 15.9734 19.8256 15.7536 19.135 15.7536C18.4444 15.7536 17.8928 15.9723 17.4836 16.4108C17.0744 16.8482 16.8692 17.4627 16.8692 18.2533V24.6725H13.248V12.8513H16.8692V14.4191C17.2358 13.8965 17.7303 13.4838 18.3514 13.1799C18.9725 12.876 19.6709 12.7246 20.4478 12.7246C21.8313 12.7246 22.9367 13.1732 23.7618 14.0692V14.0703Z" fill="#FEFFFC"/>
</svg>
