<svg width="192" height="340" viewBox="0 0 192 340" fill="none" xmlns="http://www.w3.org/2000/svg">
<path d="M83.5278 69.6015C82.9679 68.3885 81.8762 67.593 81.1205 66.5322C78.1421 61.381 77.1232 55.9138 78.8195 50.125C79.5423 47.5967 80.7645 45.2417 82.4128 43.2012C84.0611 41.1607 86.1014 39.4768 88.4114 38.2507C90.7213 37.0245 93.2533 36.2813 95.8553 36.0657C98.4573 35.8501 101.076 36.1665 103.553 36.9959C104.113 37.1708 104.645 37.3062 105.194 37.4585C107.164 37.5657 108.849 38.1694 109.706 40.1667C113.474 43.6253 116.077 47.7215 116.816 52.9235C117.404 57.0704 116.53 60.9296 114.946 64.6929C114.425 65.432 113.647 65.4715 112.892 65.3813C109.48 65.0157 106.038 65.6774 102.999 67.2826C100.088 68.7181 96.8782 69.4283 93.6385 69.3533C90.8001 69.3025 87.9449 69.1671 85.1457 69.9175C84.8714 70.0062 84.5794 70.0237 84.2966 69.9685C84.0138 69.9132 83.7494 69.787 83.5278 69.6015Z" fill="#F94646"/>
<path d="M24.3603 256.314C21.0191 247.611 17.6552 238.925 14.3482 230.216C11.8609 223.664 9.44751 217.089 7 210.532C8.13838 210.139 8.81571 210.965 9.56135 211.505C13.7278 214.534 17.7634 217.767 21.9754 220.715C23.7911 221.99 23.8764 221.968 24.9067 219.924C26.8704 216.008 28.8113 212.08 30.7921 208.176C31.2531 207.265 31.6402 206.274 32.6875 205.819C34.8789 205.438 36.4214 206.468 37.5711 208.181C38.4537 209.536 38.9947 211.085 39.1478 212.695C39.4051 215.583 40.1924 218.398 41.4701 221C41.6977 222.025 41.2481 222.895 40.8269 223.766C39.7682 225.981 38.6355 228.155 37.5541 230.352C37.0361 231.399 37.1955 232.094 38.1688 232.811C45.0389 237.843 51.8293 243.006 58.6596 248.066C59.7979 248.914 60.4241 248.635 61.1071 247.565C65.5411 240.444 69.9807 233.335 74.6253 226.339C75.6157 224.848 74.8245 224.153 73.7658 223.351C67.2847 218.444 60.7238 213.644 54.0833 208.95C53.2215 208.381 52.3999 207.753 51.6244 207.071C50.9755 206.456 50.634 205.808 51.7382 205.273C52.6683 205.043 53.6298 204.968 54.5842 205.051C61.4543 205.085 68.3187 204.942 75.1831 205.119C77.2094 205.836 78.843 207.191 80.5392 208.449C81.3133 209.018 82.1101 209.587 82.8159 210.185C83.8917 211.096 84.7056 211.022 85.4627 209.781C86.0795 208.725 86.7679 207.714 87.5231 206.752C88.0013 206.183 88.394 205.46 89.2307 205.233C94.6506 204.922 100.084 204.922 105.504 205.233C107.018 205.99 106.38 207.031 105.783 207.965C103.734 211.17 101.565 214.3 99.4875 217.488C97.0684 221.199 96.6415 220.687 100.478 223.618C106.534 228.223 112.488 232.965 118.498 237.632C120.16 238.925 120.246 238.936 121.293 237.268C125.243 231.007 128.994 224.592 132.979 218.33C133.844 216.97 133.502 216.162 132.244 215.336C128.522 212.896 124.822 210.42 121.145 207.908C120.388 207.39 119.147 206.992 119.808 205.586C120.367 205.252 121.033 205.146 121.669 205.29C124.744 205.654 127.749 206.475 130.582 207.726C133.428 209.029 135.756 210.828 137.02 213.811C137.484 214.882 138.203 215.824 139.114 216.554C140.879 218 142.786 218.649 144.988 217.494C145.728 217.106 146.468 216.719 147.203 216.31C150.851 214.278 154.312 214.949 157.055 218.12C159.042 220.459 160.171 223.407 160.254 226.476C160.385 229.1 161.199 231.678 160.715 234.331C159.839 235.139 159.326 234.251 158.78 233.847C155.553 231.496 152.268 229.219 149.001 226.925C147.294 225.73 147.129 225.787 146.024 227.569C142.08 233.915 138.221 240.319 134.322 246.689C132.916 248.965 132.95 249.017 135.113 250.758C137.02 252.29 139.001 253.73 140.879 255.312C141.511 255.842 142.239 256.303 142.552 257.139C142.826 258.819 142.114 260.407 142.16 262.092C142.302 266.867 146.019 269.087 150.259 266.839C151.102 266.389 151.853 265.74 152.832 265.575C154.505 265.518 155.444 266.822 156.628 267.653C158.336 268.854 158.484 268.865 159.571 267.084C163.555 260.464 167.688 253.94 171.683 247.332C172.207 246.467 172.537 245.214 174 245.425C171.399 252.421 168.826 259.422 166.191 266.401C158.435 286.938 150.656 307.471 142.854 328.001C142.695 328.411 142.456 328.792 142.256 329.185C140.759 329.145 139.854 329.845 139.137 331.189C137.925 333.465 136.519 335.64 135.153 337.837C134.671 338.677 134.027 339.412 133.257 340H116.182C115.459 338.93 116.301 338.15 116.751 337.382C119.927 332.133 123.109 326.885 126.251 321.62C127.605 319.343 127.622 319.303 125.511 317.772C118.111 312.439 110.962 306.832 103.574 301.51C101.787 300.218 101.673 300.218 100.518 302.159C94.7917 311.756 88.912 321.25 83.2258 330.864C82.0305 332.891 82.0418 332.896 83.886 334.507C85.2976 335.737 86.5441 337.143 87.9671 338.361C88.4395 338.77 88.9859 339.226 88.6501 340H60.0427C59.5475 338.992 60.2362 338.247 60.703 337.535C61.5454 336.255 61.2721 335.327 60.1338 334.388C57.6578 332.333 55.3583 330.073 52.9563 327.933C51.9511 327.033 51.062 326.012 50.3096 324.893C47.2246 316.867 44.1453 308.843 41.0716 300.821C39.5633 296.836 38.1289 292.852 36.6604 288.902C36.9557 287.714 37.4482 286.585 38.1175 285.56C42.1645 278.667 46.2797 271.825 50.3893 264.972C51.6699 262.832 51.6529 262.826 49.6209 261.283C43.6671 256.735 37.611 252.381 31.6516 247.878C29.7732 246.461 29.6879 246.495 28.6007 248.652C27.6729 250.491 26.7224 252.318 25.9369 254.231C25.6011 255.039 25.3393 255.961 24.3603 256.314Z" fill="#FEB600"/>
<path d="M89.0264 340C87.023 338.152 85.0646 336.259 83.0051 334.472C81.995 333.599 81.6358 332.951 82.4439 331.61C88.628 321.43 94.754 311.211 100.822 300.952C101.524 299.769 102.068 299.741 103.179 300.58C111.14 306.59 119.146 312.548 127.197 318.453C128.269 319.242 128.145 319.783 127.539 320.78C123.852 326.815 120.244 332.895 116.602 338.963C116.432 339.299 116.282 339.646 116.153 340H89.0264Z" fill="#FECD00"/>
<path d="M106.432 206.297H88.9773C88.5635 206.706 88.0168 206.953 87.436 206.994C83.6994 206.932 79.9116 207.646 76.2546 206.309H51.4349C50.724 207.119 49.8652 207.051 48.9666 206.717C48.7305 206.605 48.5285 206.433 48.3816 206.218C48.2346 206.003 48.1479 205.753 48.1306 205.493C48.0623 203.963 46.9305 203.012 46.2935 201.788C44.3143 198.02 41.0555 196.123 37.1937 194.814C32.6438 193.29 29.0835 190.435 26.1375 186.701C24.1924 184.231 22.3042 181.704 19.7449 179.767C16.0367 176.963 12.2091 174.736 7.2895 176.322C7.08565 176.425 6.85314 176.458 6.62865 176.415C6.40415 176.372 6.20044 176.256 6.04965 176.084C5.26833 170.14 4.92238 164.148 5.01454 158.154C5.90178 157.712 6.46483 158.358 7.07337 158.794C11.9076 162.233 15.8717 162.335 20.8425 159.128C23.1743 157.627 25.3071 155.848 27.6674 154.358C29.4387 153.177 31.4098 152.325 33.4856 151.843C38.371 150.783 42.3237 153.032 43.9105 157.78C44.7807 160.369 44.9001 163.082 45.2129 165.751C45.6514 169.906 46.6718 173.979 48.2443 177.852C49.5837 181.003 51.7435 183.741 54.5004 185.783C57.9128 188.378 61.9281 187.959 65.3974 184.826C67.3198 183.098 68.48 180.894 69.3786 178.526C70.2623 176.119 70.9936 173.659 71.5682 171.161C73.0072 165.198 75.9114 159.685 80.0197 155.117C80.8332 154.197 81.7941 153.418 82.8634 152.811C84.044 152.053 85.4668 151.762 86.8519 151.996C88.237 152.229 89.4841 152.971 90.348 154.075C91.4399 155.338 92.2817 156.8 93.3509 158.091C95.1083 160.216 97.2866 161.071 100.034 160.357C102.42 159.754 104.546 158.399 106.096 156.494C107.646 154.604 109.096 152.635 110.441 150.596C111.353 149.27 112.395 148.038 113.552 146.919C116.504 143.99 119.956 142.761 124.12 143.577C127.363 144.182 130.707 143.948 133.834 142.897C139.362 141.141 142.223 137.232 143.178 131.708C143.701 128.717 143.485 125.72 143.36 122.694C143.064 115.822 143.36 108.956 145.419 102.299C146.362 99.21 147.975 96.3649 150.145 93.9657C151.283 92.691 151.686 90.8158 153.381 90C173.469 106.22 186.158 126.592 188.785 152.613C188.745 153.236 188.444 153.882 188.922 154.466C189.32 156.52 189.533 158.605 189.559 160.697C189.405 164.42 189.411 168.142 189.559 171.864C189.091 178.068 188.154 184.229 186.755 190.293C186.072 193.437 185.486 196.638 187.477 199.612C188.111 200.579 188.905 201.432 189.826 202.133C192.977 204.558 192.67 207.504 189.121 209.328L187.75 210.025C187.151 210.602 186.399 210.995 185.583 211.158C182.427 211.917 180.373 213.991 178.844 216.727C177.029 219.957 176.364 223.526 175.482 227.078C175.091 228.958 174.541 230.802 173.839 232.59C172.411 236.182 170.159 238.873 166.286 239.955C163.442 240.221 161.525 239.304 160.564 237.19C160.195 236.38 159.831 235.53 160.593 234.715C160.214 231.467 159.834 228.222 159.455 224.982C159.149 222.539 158.076 220.255 156.39 218.455C154.001 215.776 150.799 215.379 147.688 217.322C142.609 220.461 138.742 219.265 136.234 213.764C135.646 212.397 134.677 211.227 133.441 210.394C129.358 207.68 124.796 206.518 119.951 206.246C119.422 206.943 118.654 206.983 117.881 206.989C114.752 207.028 111.624 207.023 108.502 206.989C108.128 207.024 107.75 206.981 107.393 206.862C107.037 206.743 106.709 206.55 106.432 206.297Z" fill="#EF6E1D"/>
<path d="M153.521 89.7523C152.996 91.1949 152.225 92.5366 151.241 93.7181C146.64 98.817 145.038 104.992 144.497 111.581C144.069 116.776 144.275 121.966 144.389 127.167C144.708 141.285 134.589 145.63 124.357 143.987C119.922 143.279 116.655 144.554 113.72 147.511C111.975 149.251 110.698 151.353 109.302 153.358C107.82 155.471 106.309 157.556 104.171 159.063C99.4285 162.383 94.9593 161.584 91.7043 156.859C91.1913 156.117 90.6953 155.358 90.1367 154.655C87.8565 151.794 85.257 151.358 82.4239 153.67C78.0687 157.228 75.264 161.913 73.474 167.159C72.2769 170.672 71.4561 174.314 70.3388 177.861C69.2215 181.408 67.3574 184.41 64.1537 186.45C60.95 188.489 57.5924 188.557 54.3488 186.41C50.5864 183.923 48.3176 180.308 46.75 176.212C45.0398 171.788 44.5097 167.148 44.008 162.468C43.8678 161.066 43.6143 159.677 43.2499 158.315C41.7506 152.933 37.7546 150.865 32.3733 152.565C29.4774 153.477 27.0832 155.205 24.7118 156.99C22.3404 158.774 20.083 160.491 17.2441 161.369C13.2537 162.598 9.7422 161.573 6.49861 159.193C5.92855 158.78 5.39271 158.315 4.84546 157.873C-0.826564 151.568 -0.741056 144.231 1.18002 136.679C4.50912 123.575 11.8514 112.777 21.1318 103.145C26.1426 97.9445 31.8203 93.5142 37.4866 89.0555C37.706 88.3981 38.1418 87.8333 38.7237 87.4522C42.0471 85.05 45.513 82.8519 48.9333 80.5913C49.2129 80.3758 49.5326 80.2172 49.874 80.1249C50.2154 80.0325 50.5718 80.0081 50.9228 80.0531L56.8912 76.3536C57.2031 75.7239 57.6846 75.1924 58.2822 74.8183C61.7548 72.7643 65.3749 70.9673 69.1131 69.4418C69.8827 69.1472 70.6751 68.7959 71.5131 69.2662C74.5469 68.3212 77.6368 67.5644 80.765 67C82.5721 67.3173 83.3873 68.473 83.5355 70.2066C82.9198 71.8099 81.2552 72.3935 80.2007 73.6059C79.0092 74.9769 78.9351 75.1979 80.4458 76.0307C84.3962 78.2119 88.3125 80.444 92.2972 82.5459C93.2464 83.1098 94.3461 83.3726 95.4496 83.2994C100.443 82.7612 105.482 83.0048 110.476 82.2287C115.242 81.4865 118.981 79.5602 121.239 75.1016C122.276 73.045 123.661 71.1698 124.528 69.0112C124.614 68.6669 124.78 68.347 125.011 68.0767C125.242 67.8065 125.534 67.5931 125.862 67.4532C134.036 69.2039 141.869 71.8666 148.704 76.7899C153.11 79.9625 154.957 84.2852 153.521 89.7523Z" fill="#407BFF"/>
<path d="M6.18531 176.084C9.7092 174.273 13.1089 174.918 16.4351 176.645C19.7904 178.389 22.6906 180.885 24.906 183.935C28.7461 189.15 33.4503 193.069 39.8091 194.965C42.6779 195.823 45.0724 197.544 46.2413 200.516C46.3802 200.874 46.6121 201.19 46.9134 201.43C48.489 202.591 48.8334 204.172 48.6075 205.984C48.7592 206.3 48.8317 206.649 48.8189 206.999C48.8061 207.349 48.7084 207.692 48.5341 207.997C47.6306 210.043 47.896 212.068 48.5341 214.103C48.93 215.441 49.0754 216.84 48.9633 218.23C48.9416 219.361 48.5202 220.448 47.7727 221.301C47.0252 222.154 45.9993 222.718 44.8747 222.896C43.2935 223.199 41.9494 222.896 41.2435 221.258C39.7188 219.425 39.2105 217.221 38.9338 214.933C38.7926 213.228 38.4359 211.548 37.8721 209.931C36.9572 207.621 35.3421 206.342 32.7896 206.432C31.8591 207 30.7731 207.265 29.6836 207.189C24.8947 207.105 20.0832 207.419 15.3282 206.797C14.4981 206.684 13.634 206.752 13.1879 205.838C10.7652 205.131 9.73179 203.247 9.44943 201.015C8.98635 197.41 7.37688 194.415 5.13492 191.639C3.54804 189.671 2.22093 187.568 2.04022 184.989C1.72397 181.238 3.28826 178.361 6.18531 176.084Z" fill="#407BFF"/>
<path d="M160.968 234.627C161.758 238.391 162.934 239.34 166.751 239.288C167.289 239.087 167.871 239.034 168.436 239.135C169.001 239.236 169.529 239.487 169.966 239.863C171.25 240.822 172.551 241.754 173.818 242.736C174.42 243.131 174.843 243.751 174.994 244.461C175.014 244.673 174.985 244.887 174.91 245.086C174.835 245.286 174.716 245.465 174.562 245.61C172.125 248.237 170.75 251.57 168.836 254.542C165.763 259.318 162.9 264.243 160.036 269.151C159.366 270.301 158.832 270.134 157.935 269.525C156.452 268.513 155.27 267.088 153.595 266.347C153.066 265.622 153.475 264.967 153.816 264.364C155.628 261.174 155.776 257.691 155.52 254.174C155.412 252.662 154.952 251.122 153.305 250.593C152.363 250.253 151.351 250.159 150.364 250.321C149.376 250.482 148.446 250.894 147.658 251.518C146.373 252.601 145.331 253.95 144.602 255.473C144.182 256.248 143.875 257.197 142.824 257.352C139.557 255.156 136.575 252.57 133.536 250.105C132.877 249.57 132.848 249.047 133.326 248.265C137.83 240.845 142.284 233.374 146.772 225.902C147.141 225.287 147.579 224.626 148.476 225.253C152.407 228.061 156.336 230.881 160.264 233.713C160.537 233.985 160.774 234.292 160.968 234.627Z" fill="#FECD00"/>
<path d="M83.1938 70.0997C86.0948 69.0171 89.1332 68.9217 92.1716 69.062C96.2559 69.2527 100.319 68.3798 103.947 66.5321C107.529 64.7539 111.415 64.8492 115.306 65.2195C118.899 65.8477 122.521 66.3414 126 67.4633C124.741 71.6816 122.252 75.2548 119.706 78.7552C117.663 81.5599 114.356 82.1713 111.157 82.7267C107.537 83.3958 103.852 83.6685 100.171 83.5401C99.9814 83.5103 99.7882 83.5103 99.5987 83.5401C94.3803 85.1107 90.392 82.3452 86.2722 79.9612C83.8232 78.542 81.3284 77.1901 78.8336 75.8887C77.735 75.3278 77.7979 74.879 78.5818 74.0656C80.0268 72.6439 81.5676 71.319 83.1938 70.0997Z" fill="#407BFF"/>
<path d="M25 256.557C26.1537 253.156 27.8814 250.009 29.3772 246.76C29.9955 245.422 30.6634 246.165 31.2706 246.624C36.8419 250.865 42.3986 255.119 47.9405 259.387C48.0399 259.466 48.1282 259.557 48.2276 259.636C49.5468 260.77 51.8431 261.456 51.9921 263.038C52.1246 264.444 50.5569 266.037 49.7014 267.523C45.7859 274.327 41.865 281.117 37.9385 287.894C37.7283 288.363 37.3784 288.75 36.9395 289C32.8106 278.239 28.7866 267.443 25 256.557Z" fill="#FECD00"/>
<path d="M109.628 40L105 37.303L123.609 6.40288C124.567 4.80275 125.486 3.18 126.479 1.59118C127.507 -0.105078 128.661 -0.404749 130.407 0.499919C131.039 0.835015 131.647 1.21286 132.227 1.63075C134.317 3.1178 134.523 4.57658 133.036 6.71951C127.197 15.1273 121.404 23.5633 115.536 31.9541C113.607 34.6398 112.039 37.6309 109.628 40Z" fill="#0884FE"/>
<path d="M49.0546 44.9206C47.7589 39.788 46.4126 34.7069 45.1958 29.5743C44.379 26.1527 46.176 23.0903 49.5053 22.0067C50.4742 21.6874 51.4657 21.4365 52.4571 21.2255C56.4005 20.3301 59.4143 22.1322 60.4339 26.0842C60.9973 28.3254 61.4817 30.5894 62 32.842C61.155 35.5452 59.065 37.3244 57.206 39.2292C55.3367 41.07 53.3102 42.7398 51.1502 44.2191C50.5193 44.6411 49.9165 45.2114 49.0546 44.9206Z" fill="#FDABD4"/>
<path d="M13.2118 206C19.7965 206.602 26.4039 206.493 33 206.608C30.5144 211.599 27.9831 216.566 25.5887 221.591C24.8475 223.14 24.3003 223.461 22.8009 222.308C17.7498 218.402 12.5847 214.656 7.45946 210.836C5.17905 206.075 5.17905 206.075 10.31 206.069C11.2791 206.086 12.2426 206.029 13.2118 206Z" fill="#FECD00"/>
<path d="M27.9836 25.0138C30.0327 29.6885 32.1784 34.3182 33.9437 39.1051C34.1537 39.8795 33.7394 40.4576 33.308 41.0075C30.3733 44.7113 27.3479 48.3478 24.4075 52.0516C24.2627 52.3028 24.0624 52.5185 23.8217 52.6827C23.5809 52.8469 23.3058 52.9553 23.0169 53C20.8088 48.4544 18.9413 43.7798 17 39.1332C17 38.1062 17.5676 37.371 18.1863 36.6191C20.9734 33.2183 23.7207 29.8231 26.2183 26.226C26.6497 25.6199 27.0243 24.8903 27.9836 25.0138Z" fill="#FE83C6"/>
<path d="M32.1832 74.9883L26 60.0818C26.1154 59.2381 26.4715 58.4477 27.0239 57.8089C29.6375 54.3476 32.7207 51.2728 35.5096 47.9673C35.9905 47.3904 36.5392 46.7386 37.467 47.1078C39.4432 51.3728 41.2459 55.7129 42.8752 60.1279C43.2203 60.9875 42.7903 61.6566 42.3095 62.2451C39.0937 65.9578 36.1551 69.9108 33.5183 74.0711C33.2298 74.5499 32.896 75.0864 32.1832 74.9883Z" fill="#FE83C6"/>
<path d="M49 44.9745C53.5576 41.6804 58.064 38.2672 61.3455 33.567C61.5665 33.3443 61.8177 33.1534 62.0918 33C63.611 38.0914 64.9138 43.2396 66 48.4444C65.869 49.3516 65.2024 49.8505 64.57 50.4062C61.4025 53.2411 57.9558 55.6677 54.6059 58.2418C53.9963 58.7067 53.3867 59.2283 52.5151 58.8938C51.3491 54.2484 50.1774 49.6086 49 44.9745Z" fill="#FE83C6"/>
<path d="M28 24.8672C24.4956 29.7148 20.8655 34.4613 16.9381 39C15.4632 35.6297 13.9196 32.2594 12.5248 28.8217C11.1299 25.384 12.5934 22.1148 15.9948 20.5813C16.3435 20.424 16.7094 20.2892 17.0639 20.1375C22.8664 17.7502 25.8048 19.0253 28 24.8672Z" fill="#FDABD4"/>
<path d="M72 69.0348C66.7835 70.7942 61.9901 73.489 57.1388 76L55 67.3032C55.1846 66.1657 55.8306 65.1448 56.7968 64.4637C60.0542 61.8023 62.9812 58.818 66.0706 55.9673C66.6502 55.4106 67.2298 54.67 68.2441 55.16C69.4845 59.7812 70.7364 64.4061 72 69.0348Z" fill="#FE83C6"/>
<path d="M32 74.8232C34.8286 69.9868 38.1278 65.4579 41.8469 61.3062C42.2282 60.9639 42.4947 60.5069 42.6087 60L47 70.4959C46.7084 71.2163 46.28 71.8696 45.7397 72.4179C42.5975 75.531 39.2423 78.4024 36.1337 81.55C35.8256 81.8607 35.4559 82.1715 34.9574 81.8895C33.8353 79.5968 32.8478 77.2371 32 74.8232Z" fill="#FDABD4"/>
<path d="M35 82.1094C38.451 78.3125 42.5238 75.2412 46.0924 71.5625C46.3865 71.3377 46.7062 71.1489 47.0448 71C48.3669 74.0187 49.6853 77.0394 51 80.0619L37.7563 89L35 82.1094Z" fill="#FE83C6"/>
<path d="M37 47.173C33.414 50.8137 30.0398 54.6703 26.895 58.7224C26.5414 59.1673 26.1492 59.5722 25.7901 60C24.7152 57.7669 23.7832 55.4635 23 53.1046C25.4365 49.1122 28.5801 45.7357 31.2873 42.0057C32.0387 40.9848 32.8343 40.0038 33.6133 39C34.9203 41.6419 36.0519 44.3726 37 47.173Z" fill="#FDABD4"/>
<path d="M175 226.861C175.425 223.065 176.586 219.382 178.42 216.008C179.328 214.271 180.694 212.8 182.377 211.744C184.06 210.689 186 210.087 188 210C185.531 216.698 182.988 223.374 180.208 229.96C177.613 230.291 176.35 228.511 175 226.861Z" fill="#FECD00"/>
<path d="M68 55.0274C67.0508 55.3568 66.5198 56.1747 65.8475 56.8115C62.2599 60.193 58.6893 63.602 55.113 67C54.2647 64.4108 53.5594 61.7794 53 59.1171L66.3729 49C67.0727 50.9659 67.6167 52.9809 68 55.0274Z" fill="#FDABD4"/>
<path d="M174.759 227C176.774 227.609 177.944 229.536 180 230.057C178.323 234.771 176.469 239.419 174.438 244C172.394 242.621 170.315 241.287 168.329 239.841C167.68 239.314 166.854 239.026 166 239.027C170.758 237.427 172.621 233.656 173.932 229.47C174.194 228.639 174.223 227.742 174.759 227Z" fill="#FEB600"/>
<path d="M189.631 172C188.79 168.015 188.79 163.985 189.631 160C190.123 163.995 190.123 168.005 189.631 172Z" fill="#FA7B1E"/>
<path d="M189 154.509C188.799 154.708 188.526 155.391 188.253 154.693C188.027 154.249 187.951 153.779 188.031 153.314C188.11 152.849 188.344 152.401 188.716 152L189 154.509Z" fill="#F97C20"/>
<path d="M90 290.704C89.6051 291.351 89.2445 291.954 88.8554 292.55C83.0464 301.982 77.1916 311.391 71.4741 320.88C70.4783 322.528 69.7572 322.123 68.7671 321.161C66.226 318.702 63.5304 316.417 60.8577 314.098C56.5367 310.35 52.3359 306.467 48.0092 302.725C46.7959 301.672 46.7215 300.84 47.5456 299.495C52.7766 290.98 57.9274 282.42 63.084 273.866C64.5033 271.508 64.4747 271.497 66.8041 273.202L88.7981 289.269C89.0867 289.416 89.342 289.619 89.5486 289.866C89.7551 290.112 89.9087 290.398 90 290.704Z" fill="#FECD00"/>
<path d="M136.266 305.995C136.003 305.825 135.666 305.632 135.363 305.399C127.278 299.418 119.21 293.408 111.096 287.467C109.765 286.49 109.708 285.763 110.593 284.383C115.033 277.368 119.353 270.268 123.638 263.156C124.444 261.822 124.952 261.623 126.266 262.662C134.102 268.853 141.987 274.98 149.922 281.043C150.968 281.838 151.385 282.383 150.573 283.678C146.162 290.722 141.854 297.822 137.506 304.899C137.226 305.359 137.151 306.064 136.266 305.995Z" fill="#FECD00"/>
<path d="M97.8132 278C97.3162 277.678 96.8021 277.397 96.3394 277.053C88.8391 271.42 81.3559 265.769 73.827 260.171C72.8844 259.47 72.7588 258.959 73.3928 257.966C78.2293 250.352 83.0315 242.719 87.7994 235.067C88.542 233.878 89.0562 233.62 90.2957 234.613C97.0478 240.039 103.874 245.379 110.706 250.691C113.562 252.913 113.562 252.844 111.746 255.859C107.557 262.795 103.368 269.739 99.1785 276.691C98.83 277.271 98.533 277.839 97.8132 278Z" fill="#FECD00"/>
<path d="M41.6782 221.604C43.1587 222.779 44.706 223.095 46.4036 222.08C47.1604 221.661 47.7725 221.012 48.1553 220.22C48.5381 219.428 48.6729 218.533 48.5409 217.658C48.5038 216.622 48.3392 215.595 48.0511 214.602C47.535 213.199 47.3428 211.691 47.4896 210.198C47.6364 208.705 48.1183 207.268 48.8971 206H51.5298C59.0994 211.712 66.6709 217.421 74.2442 223.129C76.4706 224.804 76.4427 224.781 74.9288 227.218C70.4761 234.382 66.0494 241.562 61.6486 248.757C60.797 250.156 60.2349 250.426 58.7989 249.302C51.886 243.877 44.8841 238.59 37.8544 233.308C36.8581 232.557 36.8192 231.937 37.2978 230.877C38.7951 227.831 40.5038 224.861 41.6782 221.604Z" fill="#FECD00"/>
<path d="M106.436 206H120.101C124.039 209.106 128.403 211.591 132.491 214.473C132.857 214.75 133.24 215.003 133.639 215.231C135.126 216.017 135.407 216.89 134.42 218.457C130.085 225.346 125.865 232.28 121.651 239.232C120.899 240.472 120.204 239.973 119.458 239.387C115.1 235.994 110.765 232.579 106.413 229.186C103.749 227.108 101.085 225.03 98.3751 223.015C96.9742 221.97 96.4804 221.103 97.6689 219.37C100.677 214.972 103.795 210.644 106.436 206Z" fill="#FECD00"/>
<path d="M142.77 257.106C143.816 254.901 144.757 252.636 146.495 250.891C148.376 249.004 150.624 248.703 152.987 249.234C154.708 249.617 155.782 251.498 155.931 253.892C156.214 258.327 155.682 262.561 153.264 266.335C151.21 267.821 149.312 269.585 146.456 268.812C143.816 268.098 142.222 266.329 142.028 263.41C141.911 261.278 142.162 259.141 142.77 257.106Z" fill="#EF6E1D"/>
<path d="M76 206H89C88.1922 207.997 86.6755 209.573 85.5713 211.377C84.9379 212.384 84.1359 211.992 83.392 211.445L76 206Z" fill="#FECD00"/>
<path d="M121.014 178.939C121.014 176.422 120.983 173.905 121.014 171.389C121.063 168.789 122.85 167.022 125.39 167C128.041 167 129.786 168.744 129.816 171.444C129.884 176.35 129.976 181.25 130 186.155C130 189.205 128.268 191.033 125.513 191C122.758 190.966 121.087 189.088 121.069 186.083C121.069 183.694 121.069 181.305 121.069 178.911L121.014 178.939Z" fill="#FDABD4"/>
<path d="M165.554 156.002C167.968 155.931 169.751 157.424 169.979 159.974C170.206 162.525 168.6 164.334 165.895 164.603C160.819 165.105 155.739 165.565 150.655 165.983C148.144 166.186 146.276 164.573 146.025 162.13C145.775 159.688 147.404 157.699 150.012 157.322C150.205 157.322 150.399 157.293 150.581 157.275L165.554 156.002Z" fill="#FDABD4"/>
<path d="M165.922 183C167.83 183 169.218 183.995 169.716 186.049C170.844 190.655 171.928 195.272 172.92 199.913C173.127 200.999 172.929 202.13 172.37 203.061C171.812 203.991 170.936 204.647 169.933 204.887C168.965 205.136 167.946 204.97 167.089 204.424C166.232 203.879 165.604 202.996 165.336 201.961C164.176 197.28 163.081 192.598 162.084 187.916C161.574 185.265 163.45 183.018 165.922 183Z" fill="#FDABD4"/>
<path d="M160.522 121.003C161.776 120.948 162.955 121.641 163.843 122.829C166.265 126.068 168.71 129.296 171.079 132.562C172.6 134.65 172.194 136.923 170.179 138.286C168.257 139.578 165.702 139.088 164.145 137.043C161.689 133.826 159.291 130.577 156.881 127.327C156.363 126.715 156.058 125.969 156.008 125.189C155.957 124.409 156.162 123.633 156.596 122.966C157.374 121.695 158.588 121.036 160.522 121.003Z" fill="#FDABD4"/>
<path d="M36 176.659C35.8429 178.539 35.1441 179.842 33.6544 180.545C32.1647 181.248 30.5829 181.208 29.5536 179.922C26.5354 176.082 23.8093 171.996 21.4008 167.703C20.4528 166.046 21.2925 163.794 22.8093 162.754C24.4344 161.657 26.52 161.703 27.6847 163.251C30.5295 167.071 33.1734 171.053 35.6046 175.178C35.8106 175.646 35.9441 176.146 36 176.659Z" fill="#FDABD4"/>
<path d="M97.9716 185.189C97.9738 185.763 97.8372 186.33 97.5726 186.845C97.308 187.359 96.9228 187.807 96.4478 188.151C93.2466 190.761 90.0681 193.404 86.8328 195.97C84.9053 197.49 82.3978 197.287 80.9422 195.629C80.5884 195.203 80.3254 194.714 80.1684 194.189C80.0114 193.664 79.9635 193.114 80.0275 192.571C80.0915 192.029 80.2661 191.503 80.5412 191.026C80.8163 190.549 81.1865 190.13 81.6302 189.792C84.7575 187.193 87.9188 184.632 91.0859 182.083C91.701 181.519 92.4816 181.155 93.3198 181.039C94.1581 180.924 95.0126 181.063 95.7655 181.439C96.5016 181.75 97.1141 182.283 97.5116 182.959C97.9092 183.635 98.0706 184.417 97.9716 185.189Z" fill="#FDABD4"/>
<path d="M83.9891 117.352C82.587 117.404 82.4369 118.614 82.085 119.507C79.9752 125.013 76.8006 130.063 72.7374 134.377C69.3388 137.924 65.3978 140.266 60.1586 139.976C57.7816 139.902 55.5207 138.946 53.829 137.3C52.1373 135.653 51.1396 133.438 51.036 131.097C50.7187 126.47 52.5363 122.571 54.9712 118.808C57.4062 115.045 60.4413 112.083 63.7245 109.213C63.8496 109.109 64.0007 109.04 64.162 109.013C64.3233 108.986 64.489 109.002 64.6419 109.059C66.8173 110.122 69.1946 110.844 70.9256 112.657C71.341 114.056 70.2793 114.789 69.4773 115.59C65.8402 119.295 62.6405 123.392 59.9393 127.806C59.4784 128.432 59.1561 129.147 58.993 129.903C58.908 130.219 58.9376 130.554 59.0766 130.851C59.2157 131.148 59.4555 131.388 59.7547 131.529C60.0271 131.648 60.3325 131.672 60.6207 131.598C60.909 131.523 61.1631 131.355 61.3414 131.12C62.0033 130.408 62.5838 129.626 63.0725 128.789C65.9564 124.177 69.449 119.962 73.4587 116.255C74.2261 115.562 74.9416 114.789 76.0379 114.579C78.6287 114.738 80.9656 115.857 83.4236 116.528C83.6079 116.567 83.7698 116.674 83.8753 116.828C83.9808 116.982 84.0216 117.17 83.9891 117.352Z" fill="#FDABD4"/>
<path d="M83.8974 116.655L75.8217 114.437C73.7799 114.526 71.9841 114.054 70.743 112.33L63.8112 108.709C60.872 106.762 58.0443 104.661 55.341 102.416C54.1571 101.379 53.4479 100.275 54.546 98.8337C55.4439 97.6526 56.8852 97.7247 58.4236 99.061C69.8622 108.803 83.1767 113.733 98.4129 113.528C112.923 113.334 125.597 108.41 136.498 99.1664C137.144 98.6119 137.773 98.0297 138.66 98.013C139.117 97.9769 139.574 98.0868 139.962 98.3261C140.349 98.5653 140.645 98.9208 140.804 99.3383C141.268 100.475 140.879 101.39 139.952 102.188C136.488 105.222 132.688 107.876 128.622 110.101C115.01 117.459 100.535 119.605 85.2528 116.838C84.8067 116.733 84.3663 116.71 83.8974 116.655Z" fill="#3A3938"/>
<path d="M90.0066 130.214C89.9585 129.392 90.1743 128.577 90.6223 127.887C91.0703 127.197 91.727 126.669 92.4958 126.382C94.2738 125.68 96.0977 125.881 97.239 127.533C100.072 131.572 102.806 135.681 105.441 139.859C105.978 140.77 106.136 141.857 105.881 142.884C105.625 143.912 104.977 144.797 104.076 145.348C103.19 145.916 102.123 146.123 101.09 145.929C100.058 145.734 99.1378 145.152 98.518 144.301C95.8281 140.394 93.2471 136.417 90.626 132.464C90.2005 131.793 89.9848 131.009 90.0066 130.214Z" fill="#FECD00"/>
<path d="M22.83 137.726C20.5588 137.726 18.3273 137.812 16.0787 137.726C13.4725 137.603 11.9394 136.03 12.0018 133.786C12.0055 133.28 12.1156 132.779 12.3259 132.314C12.5362 131.849 12.8424 131.428 13.2267 131.075C13.6109 130.723 14.0655 130.447 14.564 130.262C15.0624 130.078 15.5947 129.989 16.1298 130.001C20.502 130.001 24.8742 130.107 29.2463 130.318C31.6879 130.431 33.1472 132.229 32.9882 134.559C32.8519 136.61 31.2223 137.968 28.8205 138C26.8218 138 24.8458 138 22.83 138V137.726Z" fill="#FECD00"/>
<path d="M43.9825 105.476C43.9825 107.553 43.9825 109.63 43.9825 111.701C43.9492 114.292 42.4143 115.957 40.1035 115.992C39.5676 116.028 39.0305 115.947 38.5271 115.754C38.0237 115.561 37.5654 115.26 37.182 114.872C36.7987 114.484 36.499 114.017 36.3025 113.501C36.106 112.985 36.017 112.432 36.0416 111.878C35.9861 107.66 35.9861 103.443 36.0416 99.2286C36.0188 98.6758 36.1058 98.1241 36.2972 97.6073C36.4887 97.0905 36.7805 96.6197 37.1547 96.2237C37.529 95.8276 37.9777 95.5148 38.4734 95.3045C38.969 95.0942 39.5011 94.9908 40.037 95.0006C42.3367 95.0006 43.9603 96.717 43.9991 99.2515C44.0047 101.328 43.9825 103.399 43.9825 105.476Z" fill="#FECD00"/>
<path d="M70.9945 152.18C71.0315 152.926 70.8809 153.67 70.5584 154.333C70.2359 154.996 69.7534 155.553 69.1613 155.948C66.2393 158.052 63.334 160.187 60.3731 162.232C59.9309 162.558 59.4327 162.788 58.9073 162.906C58.3819 163.025 57.8398 163.031 57.3123 162.923C56.7849 162.816 56.2825 162.597 55.8343 162.28C55.3862 161.962 55.0011 161.553 54.7013 161.075C53.4514 159.036 53.8847 156.544 55.9012 155.041C58.7899 152.889 61.7063 150.767 64.6894 148.758C67.5503 146.856 70.9334 148.734 70.9945 152.18Z" fill="#FECD00"/>
<path d="M122.271 132C120.206 132 118.638 130.794 118.164 129.102C117.69 127.41 118.248 125.372 119.794 124.574C123.292 122.723 126.835 120.94 130.445 119.327C131.372 118.92 132.421 118.892 133.369 119.248C134.317 119.604 135.089 120.317 135.522 121.234C136.464 123.108 136.013 125.479 134.168 126.476C130.631 128.389 126.981 130.075 123.359 131.824C123.009 131.943 122.641 132.003 122.271 132Z" fill="#FECD00"/>
<path d="M83.8149 102C79.1075 101.753 75.5979 99.4939 73.4876 95.0665C72.6144 93.2313 72.9279 91.8148 74.3161 91.2585C75.9953 90.5818 76.8405 91.5166 77.5346 92.979C78.8052 95.7203 80.921 97.3089 83.9772 97.2974C87.0335 97.2859 89.1661 95.7891 90.4199 92.9962C91.086 91.5223 91.9368 90.5417 93.6384 91.2184C95.0546 91.7919 95.4016 93.1797 94.5116 95.0264C92.351 99.5569 88.7911 101.839 83.8149 102Z" fill="#3A3938"/>
<path d="M111.015 102C108.722 102.01 106.478 101.317 104.569 100.01C102.66 98.7024 101.172 96.8397 100.296 94.6591C99.7361 93.168 99.8983 91.8956 101.414 91.2392C102.931 90.5829 103.831 91.3428 104.436 92.7304C105.717 95.6782 107.854 97.3824 111.071 97.3363C114.187 97.3018 116.296 95.6724 117.561 92.7937C118.193 91.3544 119.183 90.531 120.722 91.2853C122.26 92.0395 122.199 93.3464 121.634 94.7858C120.753 96.9327 119.275 98.7634 117.386 100.047C115.496 101.331 113.279 102.01 111.015 102Z" fill="#3A3938"/>
<path d="M80 51.5472C80.9091 46.7864 83.1702 42.9207 87.4943 40.3584C88.6598 39.6815 89.6913 40.006 90.4664 40.9738C91.2415 41.9417 91.189 43.2116 90.1983 43.8829C87.2096 45.9235 85.1754 49.0094 84.5339 52.4759C84.4742 52.7281 84.363 52.9665 84.2068 53.1772C84.0506 53.388 83.8524 53.5669 83.6238 53.7037C83.3951 53.8405 83.1405 53.9325 82.8746 53.9743C82.6087 54.0161 82.3368 54.0069 82.0746 53.9472C80.7693 53.7291 80.1865 52.7221 80 51.5472Z" fill="#FEFEFE"/>
<path d="M82.4453 56.0128C83.9838 56.0128 85.0231 57.3241 84.9996 59.3698C84.9996 60.8444 84.3596 61.9401 82.6802 61.9984C81.0009 62.0567 79.8911 60.5238 80.0085 58.2975C79.9922 57.9815 80.0452 57.6658 80.1638 57.3722C80.2824 57.0786 80.4638 56.814 80.6955 56.5967C80.9273 56.3795 81.2037 56.2148 81.5058 56.114C81.8079 56.0131 82.1285 55.9786 82.4453 56.0128Z" fill="#FEFDFD"/>
<path d="M70.8114 113L76 115.09C71.4333 118.778 67.4821 123.091 64.2789 127.885C63.6946 128.781 63.0402 129.65 62.4325 130.541C61.632 131.696 60.5919 132.499 59.137 131.641C57.6821 130.783 57.7814 129.441 58.5527 128.193C60.1164 125.601 61.8738 123.117 63.8114 120.759C65.5584 118.584 67.4723 116.533 69.5376 114.622C70.0576 114.155 70.6653 113.737 70.8114 113Z" fill="#FE83C6"/>
</svg>
