<svg width="60" height="83" viewBox="0 0 60 83" fill="none" xmlns="http://www.w3.org/2000/svg">
<g clip-path="url(#clip0_706_1940)">
<path d="M26.0862 73.9603C23.8582 75.385 21.2182 76.0174 18.5894 75.7561C18.9284 75.4302 19.1832 75.0262 19.3316 74.5792C19.4801 74.1322 19.5177 73.6556 19.4413 73.1907C17.1591 73.9197 14.7357 74.0875 12.3754 73.6797C10.0151 73.2719 7.787 72.3006 5.87891 70.8476C12.1319 64.2461 14.6365 54.891 20.1569 47.6651C21.3444 46.3391 22.3292 44.8434 23.079 43.227C23.8883 41.055 23.5986 38.6521 23.2153 36.386C24.0855 38.461 24.8253 40.5888 25.4302 42.7567C26.0947 42.8508 26.5036 42.0641 26.6825 41.4142C27.5202 38.3892 27.9584 35.267 27.986 32.1275C29.6838 34.1433 30.7481 36.6192 31.0443 39.2421C32.0155 38.0792 32.2285 36.4801 32.6885 35.0349C33.1485 33.5897 34.1453 32.0591 35.6617 31.9479C35.343 33.2041 35.2564 34.5084 35.4061 35.796C36.2148 35.7003 36.9792 35.374 37.6088 34.8557C38.2384 34.3374 38.7068 33.6487 38.9586 32.8714C39.4458 31.3137 39.6253 29.6753 39.4867 28.0485C39.5094 26.4272 39.3638 24.808 39.0523 23.217C38.26 19.7965 35.9087 16.4701 36.7606 13.041C40.262 16.8549 46.4468 17.3765 49.6074 21.4811C50.4993 22.7171 51.1682 24.1006 51.5839 25.5686C52.9711 29.9524 53.2895 34.6065 52.5124 39.1395C52.459 39.3132 52.4412 39.496 52.4603 39.6768C52.4793 39.8576 52.5347 40.0327 52.6232 40.1913C52.859 40.4119 53.1562 40.5551 53.4751 40.6018C54.6678 41.0752 55.6977 41.8863 56.4398 42.9363C58.3054 45.0998 60.2989 47.7592 59.6259 50.5384C59.4725 51.1455 59.1999 51.7184 59.0551 52.3256C58.6292 54.0957 59.3022 55.9428 59.1999 57.7642C59.0551 60.5006 57.0957 62.895 54.6933 64.2119C52.2172 65.406 49.5004 66.0116 46.7535 65.982C45.5779 65.982 44.2745 66.0589 43.4226 66.8371C41.9147 68.2908 42.6218 71.4291 40.7135 72.3014C40.1152 72.5115 39.475 72.5731 38.8478 72.4809C34.4234 72.2102 29.9863 72.7343 25.7454 74.0287" fill="#EB6109"/>
<path d="M42.1199 66.5206C41.5163 67.8265 41.1389 69.2261 41.0039 70.6594C36.6904 71.044 32.3514 71.044 28.0379 70.6594C26.0951 70.6175 24.1951 70.0789 22.5175 69.0945C20.9244 67.9914 19.9106 65.8279 20.6944 64.0493C20.8106 63.7638 20.9985 63.5134 21.2396 63.3224C21.6066 63.0989 22.0287 62.9834 22.4579 62.9889C26.4495 62.6973 30.455 63.3201 34.1716 64.8103C36.5825 65.7681 39.036 67.1192 41.5917 66.7344" fill="#E9ECE8"/>
<path d="M42.9886 57.0627C48.3616 57.0627 52.7174 53.0236 52.7174 48.0411C52.7174 43.0586 48.3616 39.0195 42.9886 39.0195C37.6155 39.0195 33.2598 43.0586 33.2598 48.0411C33.2598 53.0236 37.6155 57.0627 42.9886 57.0627Z" fill="white"/>
<path d="M42.9874 57.6786C37.2796 57.6786 32.6367 53.3517 32.6367 48.0413C32.6367 42.731 37.2796 38.3955 42.9874 38.3955C48.6952 38.3955 53.3381 42.7567 53.3381 48.0413C53.3381 53.326 48.6952 57.6786 42.9874 57.6786ZM42.9874 39.644C37.9697 39.644 33.8805 43.4066 33.8805 48.0413C33.8805 52.6761 37.9697 56.4387 42.9874 56.4387C48.0052 56.4387 52.0943 52.6761 52.0943 48.0499C52.0943 43.4237 48.0137 39.644 42.9874 39.644Z" fill="#010101"/>
<path d="M29.5702 61.56C34.2517 61.56 38.0468 58.0416 38.0468 53.7014C38.0468 49.3612 34.2517 45.8428 29.5702 45.8428C24.8888 45.8428 21.0938 49.3612 21.0938 53.7014C21.0938 58.0416 24.8888 61.56 29.5702 61.56Z" fill="white"/>
<path d="M29.5712 62.1855C24.5535 62.1855 20.4473 58.3801 20.4473 53.7026C20.4473 49.025 24.5279 45.2197 29.5457 45.2197C34.5634 45.2197 38.6441 49.025 38.6441 53.7026C38.6441 58.3801 34.589 62.1855 29.5712 62.1855ZM29.5712 46.4597C25.235 46.4597 21.7081 49.7091 21.7081 53.7026C21.7081 57.696 25.235 60.937 29.5712 60.937C33.9074 60.937 37.4343 57.696 37.4343 53.7026C37.4343 49.7091 33.9074 46.4597 29.5712 46.4597Z" fill="#010101"/>
<path d="M30.6693 54.848C31.0034 54.848 31.2742 54.5915 31.2742 54.2751C31.2742 53.9587 31.0034 53.7021 30.6693 53.7021C30.3353 53.7021 30.0645 53.9587 30.0645 54.2751C30.0645 54.5915 30.3353 54.848 30.6693 54.848Z" fill="#010101"/>
<path d="M42.3842 50.4017C42.7182 50.4017 42.989 50.1452 42.989 49.8288C42.989 49.5124 42.7182 49.2559 42.3842 49.2559C42.0501 49.2559 41.7793 49.5124 41.7793 49.8288C41.7793 50.1452 42.0501 50.4017 42.3842 50.4017Z" fill="#010101"/>
<path d="M41.4624 58.4569C40.685 58.4628 39.9081 58.4171 39.1367 58.3201L39.256 57.465C39.3497 57.465 48.4992 58.7733 52.3669 52.6934L53.0654 53.138C51.3616 55.8488 48.3714 57.6018 44.4952 58.2004C43.4921 58.3616 42.4783 58.4474 41.4624 58.4569Z" fill="#010101"/>
<path d="M16.595 71.1983C13.7751 71.5916 8.83405 71.9251 6.52538 69.8814C5.93756 69.3597 5.06009 70.232 5.67347 70.7365C8.39106 73.1394 13.6133 72.8316 16.9357 72.3612C17.7195 72.2501 17.3872 71.0615 16.612 71.1726L16.595 71.1983Z" fill="#010101"/>
<path d="M7.17441 68.487C10.105 66.3064 11.7066 62.5011 13.4785 59.4312C15.7219 55.5147 17.8914 51.5555 19.9871 47.5535C20.3535 46.8523 19.2886 46.2281 18.9222 46.9293C17.0651 50.4581 15.1596 53.9556 13.2059 57.4217C11.3658 60.6712 9.59384 65.1178 6.55252 67.4181C5.93062 67.8884 6.55252 68.9573 7.17441 68.487Z" fill="#010101"/>
<path d="M21.7838 44.9289C22.8913 42.0727 23.8966 39.2252 23.658 36.1125C23.6069 35.3258 22.3717 35.3258 22.4313 36.1125C22.6528 39.1054 21.6561 41.8504 20.5997 44.5954C20.31 45.3393 21.5027 45.6643 21.7838 44.9289Z" fill="#010101"/>
<path d="M28.0116 39.1307C28.8203 36.7636 29.1955 34.2692 29.119 31.768C29.119 31.6047 29.0544 31.4481 28.9394 31.3327C28.8244 31.2172 28.6683 31.1523 28.5057 31.1523C28.343 31.1523 28.187 31.2172 28.0719 31.3327C27.9569 31.4481 27.8923 31.6047 27.8923 31.768C27.963 34.1571 27.5992 36.5391 26.8189 38.7972C26.5633 39.5582 27.756 39.8746 28.0116 39.1307Z" fill="#010101"/>
<path d="M33.3696 36.6937C33.804 35.7103 34.2811 34.744 34.8093 33.8119C35.0367 33.3237 35.3683 32.8916 35.7805 32.5463C36.0201 32.4113 36.2267 32.2243 36.3853 31.999C36.7942 31.3235 35.7379 30.6992 35.3204 31.3748C35.2012 31.58 34.7752 31.734 34.5963 31.9221C34.3041 32.2652 34.0526 32.6411 33.8466 33.0423C33.286 34.0239 32.777 35.0343 32.3217 36.0695C32.0065 36.7878 33.0629 37.4206 33.3866 36.6937H33.3696Z" fill="#010101"/>
<path d="M39.3067 33.2225C40.3886 30.9051 40.1586 28.0917 39.903 25.5862C39.5513 22.7419 38.7699 19.9679 37.5858 17.3598C37.2621 16.633 36.2057 17.2572 36.5209 17.9841C37.619 20.3932 38.343 22.957 38.6677 25.5862C38.9318 27.7924 39.2044 30.5459 38.2418 32.5982C37.9095 33.3165 38.9659 33.9408 39.3067 33.2225Z" fill="#010101"/>
<path d="M37.1612 12.0663C38.4062 14.5812 40.3464 16.683 42.7497 18.1206C45.1947 19.6342 48.0656 20.686 50.008 22.9435C52.7 25.9963 52.3422 30.2549 52.2315 34.0602C52.1463 36.7709 51.7459 39.191 54.685 40.1658C55.4347 40.4138 55.7584 39.2166 55.0087 38.9686C52.666 38.1905 53.4668 34.2911 53.5179 32.4953C53.5904 31.0092 53.5476 29.5196 53.3901 28.0401C53.1609 25.6471 52.1379 23.4006 50.4851 21.6608C48.7813 19.9506 46.5067 18.8817 44.411 17.6845C41.7586 16.2999 39.5982 14.1253 38.2261 11.4592C37.8768 10.7494 36.8119 11.3737 37.1612 12.0834V12.0663Z" fill="#010101"/>
<path d="M19.594 72.0358C19.7303 72.985 18.7421 73.404 18.5632 74.2078C18.5292 74.3382 18.5383 74.4762 18.5889 74.6011C18.6396 74.7259 18.7292 74.8309 18.8443 74.9004C20.0029 75.6786 22.2093 75.4734 23.4872 75.251C25.3024 74.9247 27.0004 74.1256 28.4112 72.9336C29.0246 72.4291 28.1557 71.5569 27.5593 72.0785C26.4449 73.0036 25.1284 73.6511 23.7172 73.9683C22.6779 74.1992 20.4459 74.4985 19.4577 73.8572L19.7388 74.5498C19.8751 74.0026 20.5225 73.5579 20.7185 73.0021C20.8532 72.5906 20.8738 72.1502 20.7781 71.7279C20.6674 70.9412 19.4832 71.2747 19.5854 72.0529L19.594 72.0358Z" fill="#010101"/>
<path d="M58.3559 52.4366C58.6626 54.5915 59.0119 57.1569 58.4922 59.2776C57.9385 61.5608 55.9365 62.8178 53.7812 63.4079C50.1265 64.4169 45.7988 64.263 42.0333 64.1946C38.2679 64.1262 35.0051 62.604 31.3759 61.5693C28.5731 60.7655 24.7396 60.2866 21.9538 61.3812C20.9669 61.7751 20.1495 62.505 19.6448 63.4431C19.1402 64.3812 18.9805 65.4676 19.1936 66.512C19.5855 68.9234 21.5364 70.6679 23.6235 71.7026C29.8169 74.7468 38.4468 72.6261 44.4442 70.1206C45.1683 69.8213 44.8446 68.6241 44.1205 68.9234C40.6512 70.3982 36.976 71.327 33.2246 71.6769C29.4932 72.0019 25.3529 71.9677 22.3201 69.428C21.6434 68.9218 21.113 68.2439 20.7837 67.4639C20.4543 66.6839 20.3377 65.83 20.4459 64.9898C20.8974 62.51 23.2487 62.1936 25.3529 62.1337C29.1013 62.0225 32.1682 63.1684 35.6184 64.3399C38.553 65.2499 41.6236 65.6377 44.6913 65.4858C47.7837 65.4858 51.1232 65.4858 54.139 64.6307C56.3795 64.0321 58.5774 62.681 59.4549 60.4235C60.4346 57.9179 59.9405 54.6855 59.5741 52.1031C59.4634 51.3249 58.2707 51.6584 58.3815 52.4366H58.3559Z" fill="#010101"/>
<path d="M23.0024 66.3403C28.1509 66.2415 33.2942 66.7205 38.3367 67.7683C39.112 67.9308 39.4357 66.7422 38.6605 66.5797C33.5118 65.506 28.2602 65.0098 23.0024 65.1003C22.851 65.1182 22.7115 65.1912 22.6103 65.3055C22.5091 65.4198 22.4531 65.5674 22.4531 65.7203C22.4531 65.8732 22.5091 66.0208 22.6103 66.1351C22.7115 66.2494 22.851 66.3224 23.0024 66.3403Z" fill="#010101"/>
<path d="M25.0474 64.306C25.388 66.0858 25.5845 67.8903 25.6352 69.7019C25.6352 70.4886 26.8875 70.4971 26.862 69.7019C26.8089 67.7812 26.6009 65.868 26.2401 63.9811C26.0867 63.2029 24.9026 63.5278 25.0474 64.306Z" fill="#010101"/>
<path d="M33.3945 65.127C33.6526 66.3837 33.7584 67.6672 33.7097 68.9494C33.7097 69.7447 34.9194 69.7447 34.945 68.9494C34.9836 67.555 34.8636 66.1606 34.5872 64.7935C34.4253 64.0153 33.2412 64.3488 33.3945 65.127Z" fill="#010101"/>
<path d="M58.9778 46.3906C59.0737 46.097 59.063 45.7789 58.9476 45.4925C58.8323 45.206 58.6196 44.9699 58.3474 44.8257C57.7927 44.56 57.1809 44.4366 56.5669 44.4666C56.2503 44.4239 55.9294 44.4239 55.6128 44.4666C55.2407 44.5752 54.903 44.7788 54.6327 45.0576C54.3625 45.3364 54.1689 45.6808 54.0708 46.0571C53.8905 46.816 53.911 47.609 54.1305 48.3574C54.3104 49.1838 54.6745 49.9585 55.1953 50.6235C55.4554 50.9554 55.7796 51.231 56.1486 51.4338C56.5175 51.6366 56.9235 51.7624 57.3421 51.8036C57.7615 51.8416 58.183 51.7588 58.5572 51.5649C58.9314 51.3711 59.2428 51.0742 59.4549 50.709C59.6144 50.382 59.7126 50.0284 59.7445 49.6657C59.9396 48.1862 59.7183 46.6815 59.1056 45.3217" fill="#010101"/>
<path d="M41.3601 77.2178C40.9277 76.5957 40.357 76.0832 39.693 75.721C39.0291 75.3589 38.2902 75.1569 37.535 75.1313C37.1873 75.1022 36.8385 75.1734 36.5297 75.3365C35.746 75.8068 35.8226 77.0467 36.2571 77.8078C36.806 78.5387 37.2584 79.3377 37.6031 80.1851C37.7224 80.6725 37.6883 81.1856 37.8246 81.6644C37.9609 82.1433 38.3613 82.6222 38.8554 82.5794C39.0692 82.5301 39.269 82.4329 39.4402 82.2952C39.6113 82.1575 39.7492 81.9828 39.8437 81.7842C40.6376 80.5762 41.3656 79.3259 42.0245 78.0387C42.1805 78.269 42.4074 78.4417 42.6704 78.5303C42.9335 78.619 43.2182 78.6186 43.481 78.5294C43.7439 78.4402 43.9703 78.2669 44.1258 78.0362C44.2812 77.8055 44.3571 77.5301 44.3417 77.252C46.0456 77.0724 46.8975 79.8174 48.6013 79.672C48.9338 79.6253 49.248 79.4906 49.5115 79.2817C49.775 79.0728 49.9783 78.7973 50.1006 78.4834C50.3388 77.8539 50.4349 77.1792 50.3818 76.508C50.4314 75.1866 50.0744 73.8818 49.3595 72.7711C48.9907 72.2383 48.4545 71.8451 47.8366 71.6544C47.2188 71.4637 46.5552 71.4866 45.9518 71.7193C45.5925 71.9248 45.283 72.2078 45.0458 72.548C44.8086 72.8881 44.6496 73.2768 44.5803 73.6861C44.4424 74.5072 44.4713 75.3478 44.6655 76.1574C44.4146 75.9298 44.11 75.7702 43.7805 75.6939C43.451 75.6176 43.1076 75.627 42.7827 75.7213C42.4628 75.8272 42.1917 76.0457 42.0195 76.3364C41.8473 76.6271 41.7855 76.9705 41.8456 77.3033" fill="#010101"/>
<path d="M42.7487 65.0672C41.6802 66.5668 41.0864 68.3547 41.0449 70.198C41.0627 70.3499 41.1354 70.4899 41.2493 70.5915C41.3631 70.6932 41.5102 70.7493 41.6626 70.7493C41.8149 70.7493 41.962 70.6932 42.0758 70.5915C42.1897 70.4899 42.2624 70.3499 42.2802 70.198C42.324 68.5598 42.8682 66.9747 43.8392 65.6573C44.2992 65.0159 43.2343 64.4002 42.7743 65.0416L42.7487 65.0672Z" fill="#010101"/>
<path d="M10.8709 7.15699C10.1734 7.08235 9.47067 7.23711 8.8684 7.59799C8.26613 7.95886 7.79692 8.50633 7.53138 9.15798C7.02925 10.4731 6.82553 11.8841 6.93505 13.2883C6.89934 13.9269 6.97723 14.5668 7.16506 15.1781C7.5008 15.9473 8.03629 16.6118 8.71554 17.1021C10.3597 18.4532 12.268 19.5734 13.401 21.3778C13.8947 22.2128 14.2595 23.1181 14.483 24.0629L17.2261 22.917C17.3985 22.8701 17.5491 22.7642 17.6521 22.6177C17.7081 22.4767 17.7258 22.3232 17.7032 22.173C17.5158 20.2404 16.8513 18.3677 16.7661 16.4351C16.8223 15.1708 16.7048 13.9047 16.4168 12.6726C15.8798 11.3842 14.9491 10.3002 13.7588 9.577C12.6258 8.79028 11.382 8.16604 10.3086 7.29381" fill="#FFDF00"/>
<path d="M12.1829 5.37099C12.0141 5.38762 11.8463 5.41331 11.6803 5.44795C11.131 5.38818 10.5768 5.38818 10.0276 5.44795C9.04557 5.56102 8.10929 5.92662 7.30933 6.50938C6.50938 7.09214 5.87284 7.87231 5.46132 8.7744C4.95754 9.90779 4.73986 11.1484 4.82753 12.3863C4.9152 13.6243 5.30552 14.8215 5.96395 15.872C6.95805 17.7017 8.43082 19.2244 10.2235 20.2759C11.6251 21.0576 12.7548 22.2513 13.4608 23.6964C13.103 24.0128 12.4385 24.7054 12.6088 25.2014C12.7281 25.5092 13.0348 25.5948 13.4608 25.5691L13.2563 25.9539C13.3756 26.0223 14.3382 26.467 16.6639 25.552C16.6639 25.6119 16.6639 25.6717 16.6639 25.723V25.7914C16.042 26.0138 15.4883 26.1933 15.0879 26.3216C14.7966 26.3955 14.5118 26.4928 14.236 26.6124C14.1694 26.65 14.1138 26.7046 14.0749 26.7706C14.036 26.8367 14.0152 26.9119 14.0145 26.9886C14.0278 27.1048 14.0709 27.2155 14.1396 27.3099C14.2083 27.4044 14.3002 27.4793 14.4064 27.5273C14.6485 27.6399 14.9157 27.687 15.1816 27.6642C14.9431 27.8523 14.7983 28.049 14.8153 28.2542C14.8323 28.4594 14.9601 28.716 15.5565 28.7587C16.485 28.8271 17.1751 28.1943 17.9844 27.2281L18.4103 27.134C18.0545 27.5417 17.6446 27.8985 17.1921 28.1943L16.9365 28.297L16.9877 28.5706C17.0383 28.8291 17.1397 29.0749 17.2859 29.2937C17.4322 29.5125 17.6204 29.6998 17.8396 29.8447C18.0592 29.9665 18.3029 30.038 18.5532 30.0543C18.8036 30.0706 19.0544 30.0311 19.2878 29.9388L19.4923 29.8618C19.688 29.7906 19.8657 29.677 20.0129 29.5293C20.1601 29.3815 20.2732 29.2031 20.3442 29.0067C20.4113 28.7161 20.4195 28.415 20.3683 28.1212C20.3171 27.8273 20.2075 27.5469 20.046 27.2965L19.4838 27.6642C19.7034 27.993 19.786 28.3952 19.7138 28.7844C19.6594 28.9069 19.5771 29.0148 19.4735 29.0995C19.3699 29.1842 19.2479 29.2432 19.1174 29.2718C18.9756 29.3365 18.8217 29.37 18.6659 29.37C18.5102 29.37 18.3562 29.3365 18.2144 29.2718C18.0007 29.1293 17.8416 28.9183 17.7629 28.6732C18.4259 28.1217 19.0389 27.5121 19.5945 26.8518C20.9235 26.4841 21.4772 25.9026 21.5539 25.4323C21.5741 25.3113 21.5563 25.1869 21.5029 25.0766C21.4494 24.9662 21.363 24.8754 21.2557 24.8166C21.0797 24.7534 20.8884 24.7466 20.7084 24.7971C20.5283 24.8477 20.3683 24.9531 20.2505 25.0988C19.9523 25.4408 19.6115 25.8427 19.2537 26.2276L18.8363 26.3216H18.7341C19.0237 25.9796 19.3304 25.6119 19.6712 25.2356C20.5912 24.7909 21.5028 24.141 21.4857 23.6707C21.4812 23.596 21.4556 23.5242 21.4118 23.4636C21.3681 23.403 21.308 23.3562 21.2387 23.3287C20.9064 23.2004 20.3016 23.5938 19.4497 24.4916L19.2708 24.6798C18.6659 24.9705 18.0355 25.2271 17.4392 25.4494C17.4761 25.3336 17.5246 25.2218 17.584 25.1159C17.7288 25.0475 17.8822 24.9791 18.0355 24.8936C19.3389 24.2351 20.8979 23.3372 20.915 22.8583C20.9191 22.7915 20.9045 22.7249 20.8729 22.666C20.8413 22.6071 20.7939 22.5582 20.7361 22.5248C20.6083 22.4479 20.4209 22.3367 19.16 23.0379C19.9438 22.4735 20.4635 21.9263 20.3697 21.5329C20.276 21.1395 19.7564 21.0968 19.3645 21.1481V21.0711C18.7356 19.6328 18.6124 18.0226 19.0152 16.5048C19.3832 14.7913 19.241 13.007 18.6063 11.374C18.4387 9.63062 17.7329 7.98332 16.5873 6.66223C16.0135 6.10305 15.3123 5.69309 14.5447 5.46804C13.7771 5.24299 12.9663 5.20968 12.1829 5.37099ZM6.06618 9.09079C6.5724 7.94762 7.48304 7.03355 8.62191 6.52541C8.8965 6.40493 9.18171 6.31046 9.47381 6.24322C8.18471 6.93098 7.12226 7.97962 6.41546 9.26182C5.69862 10.5637 5.45755 12.0761 5.73393 13.5375C5.29142 12.0652 5.40984 10.4804 6.06618 9.09079ZM10.5557 19.6687C9.50585 19.0848 8.57748 18.3039 7.82111 17.3684C8.4453 18.0111 9.15998 18.5585 9.94237 18.9932C10.7159 19.4249 11.4126 19.9826 12.004 20.6436C11.5648 20.2577 11.0781 19.9301 10.5557 19.6687ZM15.2668 26.9202L15.8205 26.7406C15.6147 26.8538 15.3891 26.9263 15.1561 26.9544L15.2668 26.9202ZM15.7098 28.0575C16.0089 27.885 16.3224 27.739 16.6469 27.6214C16.3926 27.8703 16.0628 28.0269 15.7098 28.0661V28.0575ZM18.1889 25.8941L17.9418 26.1933L17.5925 26.6124L16.8258 26.8432C16.9888 26.6819 17.1139 26.4862 17.1921 26.2703C17.5158 26.1677 17.8907 26.0394 18.1889 25.9026V25.8941ZM17.0388 24.637C16.1435 25.0951 15.1627 25.3601 14.1593 25.4152C14.3411 25.3753 14.52 25.324 14.696 25.2613C15.147 25.1314 15.5906 24.9773 16.025 24.7995C16.6627 24.5186 17.2855 24.2046 17.8907 23.8588C17.5684 24.0725 17.281 24.335 17.0388 24.637ZM17.8907 11.5963C18.0353 13.1436 18.0353 14.701 17.8907 16.2482C17.7201 17.9803 17.9175 19.7291 18.47 21.379C16.9633 21.7008 15.5226 22.2793 14.2104 23.0892L14.5938 23.6451C15.9455 22.8097 17.4383 22.23 18.9982 21.9348H19.0748C19.1226 21.9297 19.1689 21.9151 19.2111 21.8921C19.3245 21.8826 19.4385 21.8826 19.5519 21.8921C18.0597 23.1304 16.3365 24.0578 14.483 24.6199C14.1012 24.7671 13.6988 24.8537 13.2904 24.8765C13.4359 24.6567 13.6044 24.4531 13.793 24.2693L14.3808 24.047C14.3808 24.047 14.3382 23.9358 14.2701 23.7904H14.3127C14.0603 22.6522 13.5647 21.5825 12.8601 20.6553C12.1556 19.7281 11.2589 18.9655 10.232 18.4202C7.28441 16.7784 5.00981 13.2895 6.9692 9.61242C7.46607 8.73124 8.14375 7.96605 8.95738 7.36753C9.77101 6.769 10.702 6.3508 11.6888 6.1406C13.1573 6.26478 14.5354 6.90349 15.582 7.94492C16.5589 9.0168 17.3403 10.2527 17.8907 11.5963ZM16.1272 7.50026C15.5776 6.89812 14.9069 6.42009 14.1593 6.09785C14.8674 6.24751 15.5126 6.61165 16.008 7.1411C16.4268 7.60866 16.7742 8.13603 17.0388 8.70599C16.7576 8.26987 16.4424 7.85941 16.1272 7.50026Z" fill="#010101"/>
<path d="M14.4838 12.9465C14.1503 13.6302 14.0864 14.4152 14.3049 15.1442C14.0746 15.2154 13.8282 15.2154 13.5979 15.1442C13.6365 14.8924 13.6565 14.638 13.6575 14.3832C13.6575 13.8615 13.5893 13.3485 13.3082 13.186C13.2138 13.1341 13.1038 13.1185 12.9987 13.1421C12.8937 13.1657 12.8008 13.2269 12.7374 13.3142C12.5406 13.5101 12.4151 13.7667 12.3811 14.0427C12.3471 14.3188 12.4066 14.5983 12.55 14.8364C12.6315 15.0753 12.7866 15.282 12.993 15.4264C12.9273 15.586 12.8445 15.738 12.746 15.8796C12.1496 15.1271 11.5022 14.5456 11.0421 14.7509C10.9674 14.7759 10.9016 14.8225 10.8531 14.8849C10.8046 14.9472 10.7755 15.0226 10.7695 15.1015L10.7184 15.1442C10.6242 15.2476 10.5626 15.3767 10.5414 15.5152C10.5202 15.6537 10.5403 15.7953 10.5991 15.9224C10.7436 16.1807 10.9599 16.3911 11.2217 16.5278C11.4835 16.6645 11.7793 16.7216 12.0729 16.692C12.2545 16.6898 12.4339 16.652 12.6011 16.5808C12.9419 17.1566 13.2272 17.7636 13.453 18.3937L13.8705 18.2398C13.8705 18.2398 13.7597 17.9405 13.5893 17.5813L13.7853 17.4531C13.5723 17.0939 13.2997 16.6663 13.0015 16.2559C13.0192 16.2338 13.0392 16.2138 13.0612 16.196C13.2487 16.0493 13.393 15.8543 13.4786 15.6316C13.6898 15.6707 13.9063 15.6707 14.1175 15.6316C14.213 15.6169 14.307 15.594 14.3987 15.5632C14.7015 16.9788 15.1058 18.3706 15.6084 19.7277L16.0258 19.5909C16.0258 19.5909 15.2846 16.9571 15.0035 15.2468C15.1846 15.0937 15.332 14.9043 15.4361 14.6909C15.5403 14.4774 15.5989 14.2444 15.6084 14.0069V13.9299C15.6165 13.8161 15.6165 13.7018 15.6084 13.5879C15.6084 13.0834 15.4465 12.7328 15.1654 12.6045C15.0205 12.6301 14.7735 12.6301 14.4838 12.9465ZM10.9569 15.8027C10.9489 15.7632 10.9489 15.7225 10.9569 15.683C11.1747 15.9356 11.4452 16.1371 11.7492 16.273C11.5865 16.2711 11.4272 16.2268 11.2868 16.1443C11.1464 16.0618 11.0298 15.9441 10.9484 15.8027H10.9569ZM11.3318 15.4606L11.4596 15.5034C11.6679 15.5966 11.8538 15.7337 12.0048 15.9053C11.747 15.8107 11.514 15.6587 11.3233 15.4606H11.3318ZM13.1463 14.9219C13.0846 14.8578 13.0277 14.7892 12.976 14.7167C12.926 14.6111 12.9001 14.4957 12.9001 14.3789C12.9001 14.262 12.926 14.1466 12.976 14.0411C12.9942 14.0068 13.0205 13.9774 13.0526 13.9556C13.0952 13.9556 13.1804 14.101 13.1889 14.4687C13.1853 14.621 13.1682 14.7726 13.1378 14.9219H13.1463ZM15.1569 13.9812C15.1224 14.2239 15.0382 14.4568 14.9098 14.6653C14.9056 14.637 14.9056 14.6082 14.9098 14.5798C14.8476 14.1645 14.9161 13.74 15.1057 13.3656C15.157 13.5665 15.1715 13.7751 15.1483 13.9812H15.1569Z" fill="#010101"/>
<path d="M14.8071 2.82167C15.1196 2.16231 15.3706 1.47526 15.5567 0.769366C15.6008 0.611745 15.5807 0.44301 15.5008 0.300283C15.4209 0.157556 15.2878 0.0525276 15.1308 0.00830278C14.9738 -0.035922 14.8057 -0.0157205 14.6635 0.0644633C14.5213 0.144647 14.4166 0.278245 14.3726 0.435867C14.2149 1.04067 14.004 1.63018 13.7422 2.19743C13.4014 2.90719 14.4663 3.53998 14.8071 2.82167Z" fill="#010101"/>
<path d="M20.089 5.98583L21.6821 3.98483C21.7905 3.86906 21.8508 3.71616 21.8508 3.55727C21.8508 3.39838 21.7905 3.24547 21.6821 3.1297C21.5677 3.01894 21.415 2.95703 21.2561 2.95703C21.0972 2.95703 20.9445 3.01894 20.8302 3.1297L19.2115 5.07084C19.1068 5.18843 19.0488 5.34065 19.0488 5.49841C19.0488 5.65616 19.1068 5.80839 19.2115 5.92597C19.3269 6.0348 19.4792 6.09539 19.6375 6.09539C19.7958 6.09539 19.9481 6.0348 20.0634 5.92597L20.089 5.98583Z" fill="#010101"/>
<path d="M20.684 10.8087C21.536 11.0995 22.3879 11.3389 23.2398 11.5441C24.0917 11.7494 24.3387 10.5265 23.5635 10.3555C22.6998 10.1538 21.8468 9.9083 21.0078 9.6201C20.2496 9.35501 19.9344 10.5522 20.6755 10.8087H20.684Z" fill="#010101"/>
<path d="M6.38967 4.03682C6.21774 3.59763 5.9533 3.20092 5.61444 2.87384C5.5001 2.76308 5.34739 2.70117 5.18848 2.70117C5.02957 2.70117 4.87687 2.76308 4.76253 2.87384C4.65411 2.98961 4.59375 3.14252 4.59375 3.30141C4.59375 3.4603 4.65411 3.61321 4.76253 3.72897C4.82067 3.77876 4.87479 3.83309 4.92439 3.89145L5.00106 3.97696L5.11181 4.22495L5.16292 4.32756C5.18148 4.41308 5.21751 4.49381 5.26874 4.56464C5.31996 4.63547 5.38527 4.69486 5.46053 4.73907C5.53579 4.78327 5.61937 4.81132 5.70598 4.82144C5.79259 4.83157 5.88035 4.82354 5.96372 4.79788C6.11972 4.75206 6.25165 4.64676 6.33126 4.50451C6.41087 4.36227 6.43184 4.19439 6.38967 4.03682Z" fill="#010101"/>
<path d="M1.99488 11.502H0.59775C0.435073 11.502 0.279058 11.5668 0.164028 11.6823C0.0489982 11.7977 -0.015625 11.9544 -0.015625 12.1176C-0.015625 12.2809 0.0489982 12.4375 0.164028 12.553C0.279058 12.6685 0.435073 12.7333 0.59775 12.7333H1.99488C2.15756 12.7333 2.31357 12.6685 2.4286 12.553C2.54363 12.4375 2.60826 12.2809 2.60826 12.1176C2.60826 11.9544 2.54363 11.7977 2.4286 11.6823C2.31357 11.5668 2.15756 11.502 1.99488 11.502Z" fill="#010101"/>
<path d="M2.94042 15.2729L1.44106 17.1029C1.3345 17.2196 1.27539 17.3721 1.27539 17.5304C1.27539 17.6887 1.3345 17.8413 1.44106 17.958C1.55541 18.0688 1.70811 18.1307 1.86702 18.1307C2.02593 18.1307 2.17863 18.0688 2.29297 17.958L3.79233 16.1622C3.89711 16.0447 3.95503 15.8924 3.95503 15.7347C3.95503 15.5769 3.89711 15.4247 3.79233 15.3071C3.677 15.1983 3.52467 15.1377 3.36638 15.1377C3.20809 15.1377 3.05576 15.1983 2.94042 15.3071V15.2729Z" fill="#010101"/>
<path d="M4.30255 19.2659L3.90215 20.3691C3.85999 20.5266 3.88095 20.6945 3.96056 20.8368C4.04018 20.979 4.17211 21.0843 4.32811 21.1301C4.40809 21.1536 4.49192 21.1609 4.57475 21.1517C4.65757 21.1424 4.73774 21.1167 4.81062 21.0762C4.88351 21.0356 4.94766 20.981 4.99937 20.9154C5.05107 20.8498 5.08931 20.7745 5.11186 20.694L5.51226 19.5994C5.55632 19.4418 5.53619 19.2731 5.45631 19.1304C5.37643 18.9876 5.24333 18.8826 5.08631 18.8384C4.92928 18.7942 4.76118 18.8144 4.61899 18.8945C4.4768 18.9747 4.37216 19.1083 4.32811 19.2659H4.30255Z" fill="#010101"/>
</g>
<defs>
<clipPath id="clip0_706_1940">
<rect width="60" height="82.5882" fill="white"/>
</clipPath>
</defs>
</svg>
